<svg width="335" height="88" viewBox="0 0 335 88" fill="none" xmlns="http://www.w3.org/2000/svg">
<path d="M322.063 28.6628C326.197 28.6628 329.206 29.5648 331.089 31.3687C332.973 33.1726 333.912 36.062 333.907 40.037V59.1296C333.907 63.1205 332.965 66.002 331.089 67.7979C329.214 69.5938 326.197 70.5038 322.063 70.5038H313.866C308.514 70.5038 304.989 68.7291 303.291 65.1799V85.1345C303.291 86.1961 302.733 86.7309 301.615 86.7309H290.482C289.365 86.7309 288.814 86.2041 288.814 85.1345V30.2592C288.814 29.1976 289.365 28.6628 290.482 28.6628H300.059C301.169 28.6628 301.727 29.1976 301.727 30.2592V36.7165C302.15 34.3241 303.458 32.1785 305.39 30.7062C307.242 29.3546 309.839 28.6788 313.18 28.6788L322.063 28.6628ZM314.585 58.8901C315.436 58.9069 316.288 58.8535 317.131 58.7305C317.664 58.6671 318.17 58.4633 318.599 58.1398C318.959 57.8161 319.198 57.3799 319.277 56.9027C319.397 56.1934 319.45 55.4746 319.437 54.7555V44.3791C319.447 43.6734 319.394 42.9681 319.277 42.2719C319.202 41.7842 318.962 41.3368 318.599 41.0028C318.171 40.6769 317.664 40.4703 317.131 40.4042C316.287 40.2851 315.436 40.2318 314.585 40.2445H309.094C307.024 40.2445 305.539 40.6835 304.64 41.5615C304.163 42.077 303.797 42.6854 303.565 43.3487C303.332 44.012 303.24 44.716 303.291 45.4168V53.7259C303.245 54.4288 303.344 55.1338 303.581 55.7969C303.819 56.4601 304.19 57.0674 304.672 57.5811C305.571 58.4538 307.056 58.8901 309.126 58.8901H314.585Z" fill="white"/>
<path d="M237.097 51.6267C237.076 52.5396 237.153 53.4522 237.329 54.3485C237.454 54.9568 237.76 55.5131 238.206 55.9449C238.738 56.3871 239.387 56.6645 240.074 56.743C241.114 56.9028 242.166 56.9749 243.219 56.9586H257.297C258.365 56.9779 259.433 56.9058 260.489 56.743C261.163 56.6583 261.797 56.3812 262.317 55.9449C262.761 55.5124 263.064 54.956 263.187 54.3485C263.365 53.4526 263.446 52.54 263.426 51.6267V13.6091C263.382 13.3575 263.399 13.0989 263.475 12.8551C263.551 12.6112 263.685 12.3893 263.865 12.2078C264.045 12.0264 264.265 11.8908 264.509 11.8124C264.752 11.734 265.01 11.7151 265.262 11.7573H277.664C277.916 11.7165 278.173 11.7365 278.415 11.8155C278.657 11.8946 278.877 12.0304 279.056 12.2116C279.235 12.3929 279.368 12.6143 279.444 12.8574C279.52 13.1005 279.536 13.3582 279.492 13.6091V57.0783C279.492 61.8355 278.447 65.2624 276.356 67.3589C274.265 69.4555 270.881 70.5038 266.204 70.5038H234.392C229.72 70.5038 226.325 69.4555 224.208 67.3589C222.09 65.2624 221.026 61.8355 221.015 57.0783V13.6091C220.971 13.3575 220.988 13.0989 221.064 12.8551C221.14 12.6112 221.274 12.3893 221.454 12.2078C221.634 12.0264 221.854 11.8908 222.098 11.8124C222.341 11.734 222.599 11.7151 222.851 11.7573H235.238C235.489 11.7151 235.748 11.734 235.991 11.8124C236.234 11.8908 236.455 12.0264 236.635 12.2078C236.815 12.3893 236.948 12.6112 237.025 12.8551C237.101 13.0989 237.118 13.3575 237.073 13.6091L237.097 51.6267Z" fill="white"/>
<path d="M210.6 40.2764C207.52 40.2764 205.245 41.0746 203.76 42.7428C202.228 44.5079 201.431 46.7933 201.534 49.1283V68.9154C201.534 69.9769 200.975 70.5117 199.858 70.5117H188.724C187.607 70.5117 187.056 69.9849 187.056 68.9154V30.2592C187.056 29.1976 187.607 28.6628 188.724 28.6628H198.301C199.411 28.6628 199.969 29.1976 199.969 30.2592V37.1795C200.369 34.6361 201.739 32.3469 203.792 30.794C205.75 29.3892 208.586 28.6868 212.3 28.6868H214.048C215.165 28.6868 215.716 29.2216 215.716 30.2832V38.6881C215.716 39.7496 215.165 40.2844 214.048 40.2844L210.6 40.2764Z" fill="white"/>
<path d="M178.517 59.1296C178.517 63.1205 177.591 66.002 175.739 67.7979C173.888 69.5938 170.855 70.5037 166.673 70.5037H144.398C140.264 70.5037 137.255 69.6018 135.371 67.7979C133.488 66.002 132.546 63.1046 132.546 59.1296V40.037C132.546 36.062 133.488 33.1726 135.371 31.3687C137.255 29.5648 140.264 28.6628 144.398 28.6628H166.673C170.855 28.6628 173.877 29.5648 175.739 31.3687C177.601 33.1726 178.527 36.062 178.517 40.037V59.1296ZM164.047 44.411C164.057 43.7053 164.004 43.0001 163.887 42.3038C163.812 41.8162 163.572 41.3687 163.209 41.0347C162.779 40.712 162.273 40.5058 161.741 40.4361C160.897 40.3171 160.046 40.2637 159.195 40.2764H151.876C151.024 40.2637 150.173 40.3171 149.33 40.4361C148.797 40.5041 148.29 40.7104 147.862 41.0347C147.493 41.3646 147.253 41.8141 147.183 42.3038C147.067 43.0001 147.014 43.7053 147.024 44.411V54.7875C147.01 55.5066 147.064 56.2254 147.183 56.9346C147.257 57.414 147.497 57.8521 147.862 58.1718C148.289 58.4965 148.797 58.7005 149.33 58.7624C150.173 58.8854 151.024 58.9388 151.876 58.9221H159.195C160.046 58.9388 160.898 58.8854 161.741 58.7624C162.274 58.699 162.78 58.4952 163.209 58.1718C163.569 57.848 163.808 57.4118 163.887 56.9346C164.007 56.2254 164.06 55.5066 164.047 54.7875V44.411Z" fill="white"/>
<path d="M107.182 24.5682H88.1717C86.9506 24.5682 86.3361 23.9855 86.3361 22.8202V13.5133C86.3361 12.34 86.9506 11.7573 88.1717 11.7573H142.259C143.472 11.7573 144.087 12.34 144.087 13.5133V22.8202C144.087 23.9855 143.472 24.5682 142.259 24.5682H123.248V65.6908C123.248 66.8561 122.634 67.4468 121.413 67.4468H109.01C107.789 67.4468 107.182 66.8561 107.182 65.6908V24.5682Z" fill="white"/>
<path d="M64.3644 54.7555C64.3644 56.5036 64.6597 57.629 65.2423 58.1398C65.8249 58.6507 67.1497 58.8901 69.2328 58.8901H73.6064C75.6256 58.8901 77.0781 58.4511 77.9799 57.5811C78.4583 57.0642 78.8255 56.4547 79.0589 55.7902C79.2922 55.1257 79.3868 54.4204 79.3367 53.7179V30.2592C79.3367 29.1976 79.8874 28.6628 81.0047 28.6628H92.1781C93.2955 28.6628 93.8542 29.1976 93.8542 30.2592V68.9154C93.8542 69.9769 93.2955 70.5117 92.1781 70.5117H82.6009C81.4916 70.5117 80.9329 69.9849 80.9329 68.9154V62.5299C80.5171 64.91 79.21 67.0421 77.2776 68.4923C75.4207 69.8173 72.8216 70.4798 69.4802 70.4798H61.8184C57.6843 70.4798 54.6621 69.5779 52.752 67.774C50.8446 65.978 49.8868 63.0806 49.8868 59.1057V30.2592C49.8868 29.1976 50.4455 28.6628 51.5629 28.6628H62.7362C63.8456 28.6628 64.4043 29.1976 64.4043 30.2592L64.3644 54.7555Z" fill="white"/>
<path d="M20.6684 24.5682H1.65767C0.444556 24.5682 -0.201904 23.9855 -0.201904 22.8202V13.5133C-0.201904 12.34 0.412632 11.7573 1.62574 11.7573H55.7449C56.966 11.7573 57.5805 12.34 57.5805 13.5133V22.8202C57.5805 23.9855 56.966 24.5682 55.7449 24.5682H36.7421V65.6908C36.7421 66.8561 36.1276 67.4468 34.9065 67.4468H22.504C21.2829 67.4468 20.6684 66.8561 20.6684 65.6908V24.5682Z" fill="white"/>
<path d="M273.115 2.11525L288.487 21.2717C288.487 21.2717 290.825 23.5465 288.255 23.5066L279.476 23.3789C279.476 23.3789 279.476 24.9035 279.412 27.2342C279.325 33.8831 279.157 45.9915 279.077 50.9084C279.077 50.9084 279.412 52.2653 277.377 52.2254L264.967 52.0578C263.522 52.0578 263.57 50.9163 263.57 50.9163C263.642 46.1272 263.817 33.6037 263.913 27.1703C263.913 25.095 263.961 23.7301 263.961 23.7301L255.813 23.6104C252.676 23.5625 255.078 21.2158 255.078 21.2158C255.078 21.2158 268.646 3.73557 270.522 1.90773C270.699 1.73863 270.911 1.60892 271.143 1.52705C271.374 1.44518 271.62 1.41299 271.865 1.43257C272.109 1.45215 272.347 1.52306 272.563 1.64068C272.778 1.75831 272.967 1.92001 273.115 2.11525Z" fill="white"/>
<path d="M228.829 11.7573H54.045V24.5602H228.829V11.7573Z" fill="white"/>
<path d="M32.2409 22.7563C28.3302 22.6206 24.5073 22.2853 20.6684 21.8862V68.4923C20.6684 69.8333 21.2829 70.5037 22.504 70.5037H34.9145C36.1356 70.5037 36.7501 69.8333 36.7501 68.4923V22.8919C35.2098 22.8361 33.6934 22.8041 32.2409 22.7563Z" fill="white"/>
<path d="M118.715 22.7563C114.804 22.6206 110.981 22.2853 107.15 21.8862V68.4923C107.15 69.8333 107.757 70.5037 108.978 70.5037H121.381C122.602 70.5037 123.216 69.8333 123.216 68.4923V22.8919C121.716 22.8361 120.207 22.8041 118.715 22.7563Z" fill="white"/>
</svg>
